<svg id="Layer" enable-background="new 0 0 64 64" height="512" viewBox="0 0 64 64" width="512" xmlns="http://www.w3.org/2000/svg"><path d="m46 42 4 12h-20l4-12h4z" fill="#d67b3f"/><path d="m42 10v6c0 3.31-2.69 6-6 6h-6v-6c0-3.31 2.69-6 6-6z" fill="#73d98b"/><path d="m38 30v12h-4l-4 12h-16v-24h12z" fill="#a6b6c4"/><path d="m22 16v6h-6c-3.31 0-6-2.69-6-6v-6h6c3.31 0 6 2.69 6 6z" fill="#73d98b"/><path d="m8 28v4h4v24h42v-4h-2.559l-4-12h-7.441v-8h4v-4h-16v-2c0-1.103.897-2 2-2h6c4.411 0 8-3.589 8-8v-8h-8c-4.411 0-8 3.589-8 8v4.358c-.743.264-1.424.658-2 1.174-.576-.516-1.257-.91-2-1.174v-4.358c0-4.411-3.589-8-8-8h-8v8c0 4.411 3.589 8 8 8h6c1.103 0 2 .897 2 2v2zm24-12c0-2.206 1.794-4 4-4h4v4c0 2.206-1.794 4-4 4h-4zm-12 4h-4c-2.206 0-4-1.794-4-4v-4h4c2.206 0 4 1.794 4 4zm24.559 24 2.667 8h-14.45l2.667-8zm-8.559-12v8h-3.441l-4 12h-12.559v-20z" fill="#532c00"/></svg>