<svg height="480pt" viewBox="0 -88 480 480" width="480pt" xmlns="http://www.w3.org/2000/svg"><path d="m408 112h-32c-16.660156-61.390625-72.386719-104.007812-136-104.007812s-119.339844 42.617187-136 104.007812h-32v80h32c16.660156 61.390625 72.386719 104.007812 136 104.007812s119.339844-42.617187 136-104.007812h32zm0 0" fill="#5a6470"/><path d="m352 152c0 61.855469-50.144531 112-112 112s-112-50.144531-112-112 50.144531-112 112-112 112 50.144531 112 112zm0 0" fill="#cfdfe8"/><path d="m176 112h128v32h-128zm0 0" fill="#7fcac9"/><path d="m272 112h32v32h-32zm0 0" fill="#92cdde"/><path d="m240 112h32v32h-32zm0 0" fill="#7d8d9c"/><path d="m304 192c0 8.835938-7.164062 16-16 16s-16-7.164062-16-16 7.164062-16 16-16 16 7.164062 16 16zm0 0" fill="#e1462b"/><g fill="#394d5c"><path d="m224 72h32v16h-32zm0 0"/><path d="m272 72h16v16h-16zm0 0"/><path d="m192 72h16v16h-16zm0 0"/></g><path d="m40 96h32v112h-32zm0 0" fill="#aabece"/><path d="m8 112h32v80h-32zm0 0" fill="#5a6470"/><path d="m440 208h-32v-112h32zm0 0" fill="#aabece"/><path d="m472 192h-32v-80h32zm0 0" fill="#5a6470"/><path d="m160 168h80v16h-80zm0 0" fill="#394d5c"/><path d="m176 200h72v16h-72zm0 0" fill="#394d5c"/><path d="m72 152h24v16h-24zm0 0" fill="#cfdfe8"/><path d="m240 32c-66.273438 0-120 53.726562-120 120s53.726562 120 120 120 120-53.726562 120-120c-.074219-66.242188-53.757812-119.925781-120-120zm0 224c-57.4375 0-104-46.5625-104-104s46.5625-104 104-104 104 46.5625 104 104c-.066406 57.410156-46.589844 103.933594-104 104zm0 0"/><path d="m168 104v48h144v-48zm16 32v-16h48v16zm64 0v-16h16v16zm48-16v16h-16v-16zm0 0"/><path d="m288 168c-13.253906 0-24 10.746094-24 24s10.746094 24 24 24 24-10.746094 24-24-10.746094-24-24-24zm0 32c-4.417969 0-8-3.582031-8-8s3.582031-8 8-8 8 3.582031 8 8-3.582031 8-8 8zm0 0"/><path d="m224 72h32v16h-32zm0 0"/><path d="m272 72h16v16h-16zm0 0"/><path d="m192 72h16v16h-16zm0 0"/><path d="m472 104h-24v-8c0-4.417969-3.582031-8-8-8h-32c-4.417969 0-8 3.582031-8 8v8h-18.105469c-19.542969-61.910156-76.972656-104-141.894531-104s-122.351562 42.089844-141.894531 104h-18.105469v-8c0-4.417969-3.582031-8-8-8h-32c-4.417969 0-8 3.582031-8 8v8h-24c-4.417969 0-8 3.582031-8 8v80c0 4.417969 3.582031 8 8 8h24v8c0 4.417969 3.582031 8 8 8h32c4.417969 0 8-3.582031 8-8v-8h18.105469c19.542969 61.910156 76.972656 104 141.894531 104s122.351562-42.089844 141.894531-104h18.105469v8c0 4.417969 3.582031 8 8 8h32c4.417969 0 8-3.582031 8-8v-8h24c4.417969 0 8-3.582031 8-8v-80c0-4.417969-3.582031-8-8-8zm-456 80v-64h16v64zm48 16h-16v-96h16zm312-16c-3.566406 0-6.699219 2.359375-7.6875 5.785156-15.675781 57.964844-68.265625 98.222656-128.3125 98.222656s-112.636719-40.257812-128.3125-98.222656c-.988281-3.425781-4.121094-5.785156-7.6875-5.785156h-24v-16h16v-16h-16v-32h24c3.566406 0 6.699219-2.359375 7.6875-5.78125 15.675781-57.96875 68.265625-98.226562 128.3125-98.226562s112.636719 40.257812 128.3125 98.226562c.988281 3.421875 4.121094 5.78125 7.6875 5.78125h24v64zm56 16h-16v-96h16zm32-16h-16v-64h16zm0 0"/><path d="m160 168h80v16h-80zm0 0"/><path d="m176 200h72v16h-72zm0 0"/></svg>