<svg height="512pt" viewBox="0 0 512 512" width="512pt" xmlns="http://www.w3.org/2000/svg"><path d="m512 256c0 68.378906-26.628906 132.671875-74.980469 181.019531-48.347656 48.351563-112.640625 74.980469-181.019531 74.980469s-132.671875-26.628906-181.019531-74.980469c-48.351563-48.347656-74.980469-112.640625-74.980469-181.019531s26.628906-132.671875 74.980469-181.019531c48.347656-48.351563 112.640625-74.980469 181.019531-74.980469s132.671875 26.628906 181.019531 74.980469c48.351563 48.347656 74.980469 112.640625 74.980469 181.019531zm0 0" fill="#52adff"/><path d="m512 256c0 68.378906-26.628906 132.671875-74.980469 181.019531-48.347656 48.351563-112.640625 74.980469-181.019531 74.980469v-512c68.378906 0 132.671875 26.628906 181.019531 74.980469 48.351563 48.347656 74.980469 112.640625 74.980469 181.019531zm0 0" fill="#1d78db"/><path d="m457.871094 256c0 111.308594-90.5625 201.871094-201.871094 201.871094s-201.871094-90.5625-201.871094-201.871094 90.5625-201.871094 201.871094-201.871094 201.871094 90.5625 201.871094 201.871094zm0 0" fill="#f7ecd9"/><path d="m457.871094 256c0 111.308594-90.5625 201.871094-201.871094 201.871094v-403.742188c111.308594 0 201.871094 90.5625 201.871094 201.871094zm0 0" fill="#eacd9d"/><path d="m346.339844 193.949219-78.851563 159.0625c-2.449219 4.9375-6.597656 8.527343-11.488281 10.269531-2.191406.789062-4.53125 1.199219-6.921875 1.207031-1.179687 0-2.367187-.097656-3.558594-.308593-9.070312-1.550782-15.898437-8.730469-17-17.859376l-6.738281-55.710937-61.222656-10.257813c-9-1.511718-15.847656-8.601562-17.046875-17.640624-1.203125-9.03125 3.558593-17.660157 11.847656-21.460938l100.640625-46.191406 63.25-29.027344c8.050781-3.691406 17.238281-1.972656 23.410156 4.390625 6.167969 6.347656 7.609375 15.589844 3.679688 23.527344zm0 0" fill="#ff664d"/><path d="m346.339844 193.949219-78.851563 159.0625c-2.449219 4.9375-6.597656 8.527343-11.488281 10.269531v-168.222656l63.25-29.027344c8.050781-3.691406 17.238281-1.972656 23.410156 4.390625 6.167969 6.347656 7.609375 15.589844 3.679688 23.527344zm0 0" fill="#dd311b"/></svg>