<?xml version="1.0" encoding="iso-8859-1"?>
<!-- Generator: Adobe Illustrator 19.0.0, SVG Export Plug-In . SVG Version: 6.00 Build 0)  -->
<svg version="1.1" id="Capa_1" xmlns="http://www.w3.org/2000/svg" xmlns:xlink="http://www.w3.org/1999/xlink" x="0px" y="0px"
	 viewBox="0 0 512 512" style="enable-background:new 0 0 512 512;" xml:space="preserve">
<path id="SVGCleanerId_0" style="fill:#F8DAD1;" d="M223.937,337.756V47.593c0-22.134-17.944-40.078-40.078-40.078
	s-40.078,17.944-40.078,40.078v290.163c-28.549,14.595-48.094,44.293-48.094,78.557c0,48.696,39.476,88.172,88.172,88.172
	s88.172-39.476,88.172-88.172C272.031,382.049,252.486,352.35,223.937,337.756z"/>
<g>
	<path id="SVGCleanerId_0_1_" style="fill:#F8DAD1;" d="M223.937,337.756V47.593c0-22.134-17.944-40.078-40.078-40.078
		s-40.078,17.944-40.078,40.078v290.163c-28.549,14.595-48.094,44.293-48.094,78.557c0,48.696,39.476,88.172,88.172,88.172
		s88.172-39.476,88.172-88.172C272.031,382.049,252.486,352.35,223.937,337.756z"/>
</g>
<path style="fill:#F4C9BE;" d="M143.781,337.756c-28.549,14.595-48.094,44.293-48.094,78.557c0,48.696,39.476,88.172,88.172,88.172
	c22.072,0,42.25-8.11,57.716-21.513c-9.55,3.542-19.878,5.481-30.66,5.481c-48.696,0-88.173-39.476-88.173-88.172
	c0-23.399,9.344-44.668,24.205-60.453"/>
<path style="fill:#E36D45;" d="M199.89,370.967V47.593c0-8.854-7.177-16.031-16.031-16.031s-16.031,7.177-16.031,16.031v323.374
	c-18.677,6.604-32.063,24.408-32.063,45.347c0,26.562,21.532,48.094,48.094,48.094s48.094-21.532,48.094-48.094
	C231.953,395.374,218.568,377.57,199.89,370.967z"/>
<circle style="fill:#DC4817;" cx="183.859" cy="416.313" r="16.031"/>
<path d="M280.047,103.202c4.151,0,7.515-3.365,7.515-7.515c0-4.15-3.364-7.515-7.515-7.515h-48.595V47.593
	C231.452,21.351,210.101,0,183.859,0s-47.593,21.351-47.593,47.593v80.49c0,4.15,3.364,7.515,7.515,7.515s7.515-3.365,7.515-7.515
	v-80.49c0-17.955,14.608-32.564,32.564-32.564s32.564,14.609,32.564,32.564v40.579h-9.018V47.593
	c0-12.983-10.563-23.546-23.546-23.546s-23.546,10.563-23.546,23.546v318.34c-19.379,9.062-32.063,28.678-32.063,50.38
	c0,30.663,24.946,55.609,55.609,55.609s55.609-24.946,55.609-55.609c0-21.702-12.684-41.319-32.063-50.38v-70.355h9.018v42.178
	c0,2.823,1.581,5.407,4.094,6.691c27.14,13.874,44,41.412,44,71.866c0,44.475-36.183,80.658-80.658,80.658
	s-80.658-36.183-80.658-80.658c0-30.454,16.86-57.992,44-71.866c2.513-1.285,4.094-3.869,4.094-6.691V163.82
	c0-4.15-3.364-7.515-7.515-7.515s-7.515,3.365-7.515,7.515v169.462c-29.784,17.061-48.094,48.461-48.094,83.031
	c0,52.762,42.925,95.687,95.687,95.687s95.687-42.925,95.687-95.687c0-34.57-18.31-65.97-48.094-83.031v-37.705h48.595
	c4.151,0,7.515-3.365,7.515-7.515s-3.364-7.515-7.515-7.515h-48.595v-49.096h48.595c4.151,0,7.515-3.365,7.515-7.515
	s-3.364-7.515-7.515-7.515h-48.595v-49.096h48.595c4.151,0,7.515-3.365,7.515-7.515s-3.364-7.515-7.515-7.515h-48.595v-49.096
	H280.047z M224.438,416.313c0,22.376-18.204,40.579-40.579,40.579s-40.579-18.204-40.579-40.579
	c0-17.165,10.872-32.541,27.053-38.262c3.002-1.062,5.01-3.901,5.01-7.085V47.593c0-4.696,3.82-8.517,8.517-8.517
	s8.517,3.82,8.517,8.517v323.374c0,3.184,2.008,6.024,5.01,7.085C213.566,383.773,224.438,399.149,224.438,416.313z
	 M216.423,280.548h-9.018v-49.096h9.018V280.548z M216.423,216.423h-9.018v-49.096h9.018V216.423z M216.423,152.297h-9.018v-49.096
	h9.018V152.297z"/>
<path d="M359.703,111.718c0-12.983-10.563-23.546-23.546-23.546s-23.546,10.563-23.546,23.546s10.563,23.546,23.546,23.546
	S359.703,124.702,359.703,111.718z M336.157,120.235c-4.696,0-8.517-3.82-8.517-8.517s3.82-8.517,8.517-8.517
	c4.696,0,8.517,3.82,8.517,8.517S340.853,120.235,336.157,120.235z"/>
<path d="M416.313,232.454h-16.031c-22.376,0-40.579-18.204-40.579-40.579s18.204-40.579,40.579-40.579h16.031
	c4.151,0,7.515-3.365,7.515-7.515s-3.364-7.515-7.515-7.515h-16.031c-30.663,0-55.609,24.946-55.609,55.609
	s24.946,55.609,55.609,55.609h16.031c4.151,0,7.515-3.365,7.515-7.515S420.464,232.454,416.313,232.454z"/>
<g>
</g>
<g>
</g>
<g>
</g>
<g>
</g>
<g>
</g>
<g>
</g>
<g>
</g>
<g>
</g>
<g>
</g>
<g>
</g>
<g>
</g>
<g>
</g>
<g>
</g>
<g>
</g>
<g>
</g>
</svg>
